<svg width="40" height="40" viewBox="0 0 40 40" fill="none" xmlns="http://www.w3.org/2000/svg">
<rect x="0.5" y="0.5" width="39" height="39" rx="19.5" fill="white"/>
<rect x="0.5" y="0.5" width="39" height="39" rx="19.5" stroke="#543C52"/>
<path d="M13.3333 15.8333H26.6666M18.3333 19.1667V24.1667M21.6666 19.1667V24.1667M14.1666 15.8333L15 25.8333C15 26.2754 15.1756 26.6993 15.4881 27.0118C15.8007 27.3244 16.2246 27.5 16.6666 27.5H23.3333C23.7753 27.5 24.1993 27.3244 24.5118 27.0118C24.8244 26.6993 25 26.2754 25 25.8333L25.8333 15.8333M17.5 15.8333V13.3333C17.5 13.1123 17.5878 12.9004 17.7441 12.7441C17.9003 12.5878 18.1123 12.5 18.3333 12.5H21.6666C21.8877 12.5 22.0996 12.5878 22.2559 12.7441C22.4122 12.9004 22.5 13.1123 22.5 13.3333V15.8333" stroke="#543C52" stroke-width="1.66667" stroke-linecap="round" stroke-linejoin="round"/>
</svg>
