<svg width="41" height="41" viewBox="0 0 41 41" fill="none" xmlns="http://www.w3.org/2000/svg">
<rect x="1.30859" y="1" width="39" height="39" rx="19.5" fill="white" style="fill:white;fill-opacity:1;"/>
<rect x="1.30859" y="1" width="39" height="39" rx="19.5" stroke="#543C52" style="stroke:#543C52;stroke:color(display-p3 0.3294 0.2353 0.3216);stroke-opacity:1;"/>
<path d="M27.2988 21.5801H21.8902V26.9887C21.8902 27.2756 21.7762 27.5508 21.5733 27.7536C21.3705 27.9565 21.0953 28.0705 20.8084 28.0705C20.5215 28.0705 20.2464 27.9565 20.0435 27.7536C19.8407 27.5508 19.7267 27.2756 19.7267 26.9887V21.5801H14.3181C14.0312 21.5801 13.756 21.4661 13.5532 21.2633C13.3503 21.0604 13.2363 20.7853 13.2363 20.4984C13.2363 20.2115 13.3503 19.9363 13.5532 19.7335C13.756 19.5306 14.0312 19.4166 14.3181 19.4166H19.7267V14.008C19.7267 13.7211 19.8407 13.446 20.0435 13.2431C20.2464 13.0402 20.5215 12.9263 20.8084 12.9263C21.0953 12.9263 21.3705 13.0402 21.5733 13.2431C21.7762 13.446 21.8902 13.7211 21.8902 14.008V19.4166H27.2988C27.5857 19.4166 27.8608 19.5306 28.0637 19.7335C28.2666 19.9363 28.3805 20.2115 28.3805 20.4984C28.3805 20.7853 28.2666 21.0604 28.0637 21.2633C27.8608 21.4661 27.5857 21.5801 27.2988 21.5801Z" fill="#543C52" style="fill:#543C52;fill:color(display-p3 0.3294 0.2353 0.3216);fill-opacity:1;"/>
</svg>
