<svg width="20" height="20" viewBox="0 0 20 20" fill="none" xmlns="http://www.w3.org/2000/svg">
<path d="M8.06667 8.23329C7.82104 8.46217 7.62404 8.73817 7.4874 9.04483C7.35076 9.3515 7.27728 9.68254 7.27136 10.0182C7.26544 10.3539 7.32719 10.6873 7.45292 10.9986C7.57866 11.3099 7.76581 11.5927 8.0032 11.8301C8.2406 12.0675 8.52338 12.2546 8.83467 12.3804C9.14597 12.5061 9.4794 12.5679 9.81508 12.5619C10.1508 12.556 10.4818 12.4825 10.7885 12.3459C11.0951 12.2093 11.3711 12.0122 11.6 11.7666M8.775 4.23329C9.12609 4.18955 9.47953 4.16729 9.83333 4.16663C15.6667 4.16663 18.1667 9.99996 18.1667 9.99996C17.7941 10.7976 17.3268 11.5474 16.775 12.2333M5.34167 5.50829C3.68438 6.63715 2.35823 8.18768 1.5 9.99996C1.5 9.99996 4 15.8333 9.83333 15.8333C11.4299 15.8376 12.9923 15.3709 14.325 14.4916M1.5 1.66663L18.1667 18.3333" stroke="#81818D" style="stroke:#81818D;stroke:color(display-p3 0.5059 0.5059 0.5529);stroke-opacity:1;" stroke-width="2" stroke-linecap="round" stroke-linejoin="round"/>
</svg>
