<svg width="21" height="20" viewBox="0 0 21 20" fill="none" xmlns="http://www.w3.org/2000/svg">
<g clip-path="url(#clip0_55_704)">
<path d="M2.54736 5.00008C2.54736 4.11603 2.89855 3.26818 3.52367 2.64306C4.1488 2.01794 4.99664 1.66675 5.8807 1.66675H15.8807C16.7648 1.66675 17.6126 2.01794 18.2377 2.64306C18.8628 3.26818 19.214 4.11603 19.214 5.00008V15.0001C19.214 15.8841 18.8628 16.732 18.2377 17.3571C17.6126 17.9822 16.7648 18.3334 15.8807 18.3334H5.8807C4.99664 18.3334 4.1488 17.9822 3.52367 17.3571C2.89855 16.732 2.54736 15.8841 2.54736 15.0001V5.00008Z" stroke="#070A1C" style="stroke:#070A1C;stroke:color(display-p3 0.0275 0.0392 0.1098);stroke-opacity:1;" stroke-width="1.66667" stroke-linecap="round" stroke-linejoin="round"/>
<path d="M7.96419 9.16667C9.11479 9.16667 10.0475 8.23393 10.0475 7.08333C10.0475 5.93274 9.11479 5 7.96419 5C6.8136 5 5.88086 5.93274 5.88086 7.08333C5.88086 8.23393 6.8136 9.16667 7.96419 9.16667Z" stroke="#070A1C" style="stroke:#070A1C;stroke:color(display-p3 0.0275 0.0392 0.1098);stroke-opacity:1;" stroke-width="1.66667" stroke-linecap="round" stroke-linejoin="round"/>
<path d="M12.9859 10.5176L5.88086 18.3334H15.9917C16.8464 18.3334 17.666 17.9939 18.2703 17.3896C18.8747 16.7852 19.2142 15.9656 19.2142 15.1109V15.0001C19.2142 14.6118 19.0684 14.4626 18.8059 14.1751L15.4475 10.5126C15.291 10.3418 15.1006 10.2056 14.8885 10.1126C14.6764 10.0195 14.4472 9.9717 14.2156 9.97217C13.984 9.97264 13.755 10.0214 13.5433 10.1153C13.3315 10.2092 13.1417 10.3462 12.9859 10.5176Z" stroke="#070A1C" style="stroke:#070A1C;stroke:color(display-p3 0.0275 0.0392 0.1098);stroke-opacity:1;" stroke-width="1.66667" stroke-linecap="round" stroke-linejoin="round"/>
</g>
<defs>
<clipPath id="clip0_55_704">
<rect width="20" height="20" fill="white" style="fill:white;fill-opacity:1;" transform="translate(0.880859)"/>
</clipPath>
</defs>
</svg>
