<svg width="21" height="20" viewBox="0 0 21 20" fill="none" xmlns="http://www.w3.org/2000/svg">
<path d="M17.3711 11.0801H11.9624V16.4887C11.9624 16.7756 11.8485 17.0508 11.6456 17.2536C11.4427 17.4565 11.1676 17.5705 10.8807 17.5705C10.5938 17.5705 10.3187 17.4565 10.1158 17.2536C9.91294 17.0508 9.79897 16.7756 9.79897 16.4887V11.0801H4.39032C4.10343 11.0801 3.82829 10.9661 3.62543 10.7633C3.42256 10.5604 3.30859 10.2853 3.30859 9.99837C3.30859 9.71148 3.42256 9.43634 3.62543 9.23348C3.82829 9.03061 4.10343 8.91664 4.39032 8.91664H9.79897V3.508C9.79897 3.22111 9.91294 2.94596 10.1158 2.7431C10.3187 2.54024 10.5938 2.42627 10.8807 2.42627C11.1676 2.42627 11.4427 2.54024 11.6456 2.7431C11.8485 2.94596 11.9624 3.22111 11.9624 3.508V8.91664H17.3711C17.658 8.91664 17.9331 9.03061 18.136 9.23348C18.3388 9.43634 18.4528 9.71148 18.4528 9.99837C18.4528 10.2853 18.3388 10.5604 18.136 10.7633C17.9331 10.9661 17.658 11.0801 17.3711 11.0801Z" fill="black" style="fill:black;fill-opacity:1;"/>
</svg>
