<svg width="16" height="16" viewBox="0 0 16 16" fill="none" xmlns="http://www.w3.org/2000/svg">
<path d="M14.1543 9.0801H8.74563V14.4887C8.74563 14.7756 8.63166 15.0508 8.4288 15.2536C8.22593 15.4565 7.95079 15.5705 7.6639 15.5705C7.37701 15.5705 7.10187 15.4565 6.899 15.2536C6.69614 15.0508 6.58217 14.7756 6.58217 14.4887V9.0801H1.17353C0.886633 9.0801 0.611492 8.96613 0.408628 8.76327C0.205765 8.56041 0.0917969 8.28527 0.0917969 7.99837C0.0917969 7.71148 0.205765 7.43634 0.408628 7.23348C0.611492 7.03061 0.886633 6.91664 1.17353 6.91664H6.58217V1.508C6.58217 1.22111 6.69614 0.945964 6.899 0.7431C7.10187 0.540237 7.37701 0.42627 7.6639 0.42627C7.95079 0.42627 8.22593 0.540237 8.4288 0.7431C8.63166 0.945964 8.74563 1.22111 8.74563 1.508V6.91664H14.1543C14.4412 6.91664 14.7163 7.03061 14.9192 7.23348C15.122 7.43634 15.236 7.71148 15.236 7.99837C15.236 8.28527 15.122 8.56041 14.9192 8.76327C14.7163 8.96613 14.4412 9.0801 14.1543 9.0801Z" fill="white" style="fill:white;fill-opacity:1;"/>
</svg>
